HIERARCHY
ROOT reference
{
  OFFSET -65.3212 -1.93545 -120.338
  CHANNELS 6 Xposition Yposition Zposition Zrotation Xrotation Yrotation
  JOINT Hips
  {
    OFFSET 0 78.7191 0
    CHANNELS 3 Zrotation Xrotation Yrotation
    JOINT Chest
    {
      OFFSET 0 8.7983 -4.7612
      CHANNELS 3 Zrotation Xrotation Yrotation
      JOINT Chest2
      {
        OFFSET 0 8.0291 0.4195
        CHANNELS 3 Zrotation Xrotation Yrotation
        JOINT Chest3
        {
          OFFSET 0 9.9351 -2.2114
          CHANNELS 3 Zrotation Xrotation Yrotation
          JOINT Neck
          {
            OFFSET 0 22.3885 -0.4656
            CHANNELS 3 Zrotation Xrotation Yrotation
            JOINT Head
            {
              OFFSET -0.0001 12.643 3.4389
              CHANNELS 3 Zrotation Xrotation Yrotation
              End Site
              {
                OFFSET 0.0001 17.6655 0.5274
              }
            }
          }
          JOINT LeftCollar
          {
            OFFSET 2.2603 21.606 7.4023
            CHANNELS 3 Zrotation Xrotation Yrotation
            JOINT LeftShoulder
            {
              OFFSET 13.5163 -1.1332 -5.0146
              CHANNELS 3 Zrotation Xrotation Yrotation
              JOINT LeftElbow
              {
                OFFSET -0.0995 -28.05 -0.2431
                CHANNELS 3 Zrotation Xrotation Yrotation
                JOINT LeftWrist
                {
                  OFFSET 0.0679 -23.3996 -0.1402
                  CHANNELS 3 Zrotation Xrotation Yrotation
                  JOINT LeftFinger1
                  {
                    OFFSET 0.7932 -9.069 2.5189
                    CHANNELS 3 Zrotation Xrotation Yrotation
                    JOINT LeftFinger11
                    {
                      OFFSET -0.8272 -3.3923 0.5977
                      CHANNELS 3 Zrotation Xrotation Yrotation
                      JOINT LeftFinger12
                      {
                        OFFSET -0.5649 -2.3158 0.4082
                        CHANNELS 3 Zrotation Xrotation Yrotation
                        End Site
                        {
                          OFFSET -0.4919 -1.6479 0.2673
                        }
                      }
                    }
                  }
                  JOINT LeftFinger2
                  {
                    OFFSET 0.9159 -9.2044 0.2193
                    CHANNELS 3 Zrotation Xrotation Yrotation
                    JOINT LeftFinger21
                    {
                      OFFSET 0.0117 -4.1944 -0.0248
                      CHANNELS 3 Zrotation Xrotation Yrotation
                      JOINT LeftFinger22
                      {
                        OFFSET 0.0071 -2.3249 -0.0142
                        CHANNELS 3 Zrotation Xrotation Yrotation
                        End Site
                        {
                          OFFSET -0.1475 -2.0882 0.0028
                        }
                      }
                    }
                  }
                  JOINT LeftFinger3
                  {
                    OFFSET 0.6113 -8.7231 -2.0637
                    CHANNELS 3 Zrotation Xrotation Yrotation
                    JOINT LeftFinger31
                    {
                      OFFSET -0.1927 -3.8059 -0.2383
                      CHANNELS 3 Zrotation Xrotation Yrotation
                      JOINT LeftFinger32
                      {
                        OFFSET -0.1091 -2.1688 -0.1362
                        CHANNELS 3 Zrotation Xrotation Yrotation
                        End Site
                        {
                          OFFSET -0.2358 -1.9176 -0.0906
                        }
                      }
                    }
                  }
                  JOINT LeftFinger4
                  {
                    OFFSET -0.6151 -8.0947 -3.5641
                    CHANNELS 3 Zrotation Xrotation Yrotation
                    JOINT LeftFinger41
                    {
                      OFFSET -0.4882 -2.341 -0.6462
                      CHANNELS 3 Zrotation Xrotation Yrotation
                      JOINT LeftFinger42
                      {
                        OFFSET -0.3575 -1.7167 -0.4742
                        CHANNELS 3 Zrotation Xrotation Yrotation
                        End Site
                        {
                          OFFSET -0.4187 -1.5237 -0.3496
                        }
                      }
                    }
                  }
                  JOINT LeftFinger0
                  {
                    OFFSET -1.42 -1.8761 1.4223
                    CHANNELS 3 Zrotation Xrotation Yrotation
                    JOINT LeftFinger01
                    {
                      OFFSET -1.1471 -3.4929 2.6334
                      CHANNELS 3 Zrotation Xrotation Yrotation
                      JOINT LeftFinger02
                      {
                        OFFSET -0.823 -2.3 1.6571
                        CHANNELS 3 Zrotation Xrotation Yrotation
                        End Site
                        {
                          OFFSET -0.5822 -1.6914 1.1582
                        }
                      }
                    }
                  }
                }
              }
            }
          }
          JOINT RightCollar
          {
            OFFSET -2.2603 21.606 7.4023
            CHANNELS 3 Zrotation Xrotation Yrotation
            JOINT RightShoulder
            {
              OFFSET -13.5187 -1.1334 -5.0155
              CHANNELS 3 Zrotation Xrotation Yrotation
              JOINT RightElbow
              {
                OFFSET 0.0994 -28.0499 -0.2431
                CHANNELS 3 Zrotation Xrotation Yrotation
                JOINT RightWrist
                {
                  OFFSET -0.0679 -23.3996 -0.1402
                  CHANNELS 3 Zrotation Xrotation Yrotation
                  JOINT RightFinger1
                  {
                    OFFSET -0.7932 -9.0691 2.5189
                    CHANNELS 3 Zrotation Xrotation Yrotation
                    JOINT RightFinger11
                    {
                      OFFSET 0.8272 -3.3923 0.5977
                      CHANNELS 3 Zrotation Xrotation Yrotation
                      JOINT RightFinger12
                      {
                        OFFSET 0.565 -2.3158 0.4082
                        CHANNELS 3 Zrotation Xrotation Yrotation
                        End Site
                        {
                          OFFSET 0.4919 -1.6479 0.2673
                        }
                      }
                    }
                  }
                  JOINT RightFinger2
                  {
                    OFFSET -0.916 -9.2044 0.2193
                    CHANNELS 3 Zrotation Xrotation Yrotation
                    JOINT RightFinger21
                    {
                      OFFSET -0.0117 -4.1944 -0.0248
                      CHANNELS 3 Zrotation Xrotation Yrotation
                      JOINT RightFinger22
                      {
                        OFFSET -0.0071 -2.3249 -0.0142
                        CHANNELS 3 Zrotation Xrotation Yrotation
                        End Site
                        {
                          OFFSET 0.1475 -2.0882 0.0028
                        }
                      }
                    }
                  }
                  JOINT RightFinger3
                  {
                    OFFSET -0.6113 -8.7231 -2.0637
                    CHANNELS 3 Zrotation Xrotation Yrotation
                    JOINT RightFinger31
                    {
                      OFFSET 0.1927 -3.8059 -0.2383
                      CHANNELS 3 Zrotation Xrotation Yrotation
                      JOINT RightFinger32
                      {
                        OFFSET 0.1091 -2.1688 -0.1362
                        CHANNELS 3 Zrotation Xrotation Yrotation
                        End Site
                        {
                          OFFSET 0.2358 -1.9176 -0.0906
                        }
                      }
                    }
                  }
                  JOINT RightFinger4
                  {
                    OFFSET 0.6151 -8.0947 -3.564
                    CHANNELS 3 Zrotation Xrotation Yrotation
                    JOINT RightFinger41
                    {
                      OFFSET 0.4882 -2.341 -0.6462
                      CHANNELS 3 Zrotation Xrotation Yrotation
                      JOINT RightFinger42
                      {
                        OFFSET 0.3574 -1.7166 -0.4742
                        CHANNELS 3 Zrotation Xrotation Yrotation
                        End Site
                        {
                          OFFSET 0.4187 -1.5237 -0.3496
                        }
                      }
                    }
                  }
                  JOINT RightFinger0
                  {
                    OFFSET 1.4199 -1.8761 1.4221
                    CHANNELS 3 Zrotation Xrotation Yrotation
                    JOINT RightFinger01
                    {
                      OFFSET 1.1472 -3.4929 2.6336
                      CHANNELS 3 Zrotation Xrotation Yrotation
                      JOINT RightFinger02
                      {
                        OFFSET 0.8229 -2.3 1.6571
                        CHANNELS 3 Zrotation Xrotation Yrotation
                        End Site
                        {
                          OFFSET 0.5822 -1.6914 1.1582
                        }
                      }
                    }
                  }
                }
              }
            }
          }
        }
      }
    }
    JOINT RightHip
    {
      OFFSET -9.412 3.9771 -0.7758
      CHANNELS 3 Zrotation Xrotation Yrotation
      JOINT RightKnee
      {
        OFFSET -0.7531 -40.938 0
        CHANNELS 3 Zrotation Xrotation Yrotation
        JOINT RightAnkle
        {
          OFFSET 0 -40.1986 0
          CHANNELS 3 Zrotation Xrotation Yrotation
          JOINT RightToe
          {
            OFFSET 0 -4.4182 9.239
            CHANNELS 3 Zrotation Xrotation Yrotation
            End Site
            {
              OFFSET 0 0 6.1981
            }
          }
        }
      }
    }
    JOINT LeftHip
    {
      OFFSET 9.4119 3.9773 -0.7758
      CHANNELS 3 Zrotation Xrotation Yrotation
      JOINT LeftKnee
      {
        OFFSET 0.7532 -40.9383 0
        CHANNELS 3 Zrotation Xrotation Yrotation
        JOINT LeftAnkle
        {
          OFFSET 0 -40.1986 0
          CHANNELS 3 Zrotation Xrotation Yrotation
          JOINT LeftToe
          {
            OFFSET 0 -4.4182 9.239
            CHANNELS 3 Zrotation Xrotation Yrotation
            End Site
            {
              OFFSET 0 0 6.1981
            }
          }
        }
      }
    }
  }
}
MOTION
Frames:	8
Frame Time:	0.0333333
-31.8477 47.561 -7.39874 0 0 -0 -5.70155 -28.0471 27.2718 -0.458781 4.91666 -4.44835 -0.534763 9.85403 -8.90664 -0.534765 9.85406 -8.90666 0.419381 8.27917 11.2858 12.1906 1.03823 16.5832 8.63759 -1.84052 -32.0382 39.4019 -11.0045 20.8661 -116.911 -42.8658 -69.8054 -32.247 2.44528 39.0289 -3.03455 13.5333 -2.18212 -35.3168 20.4567 4.66819 -36.3891 20.9688 4.99587 -1.00369 1.774 1.17349 -42.7842 24.7473 5.5453 -8.91322 5.6287 -0.442371 -6.58203 6.72803 5.0649 -13.883 9.68209 -0.672684 -15.2683 10.6413 -0.610356 13.8074 -0.976134 8.79333 -17.7367 12.2751 -1.06119 -8.75059 6.03028 -1.00081 -11.5753 -16.7454 -49.4479 -4.53232 0.274135 0.313053 8.53295 10.6972 -3.07918 -0.207003 0.361003 1.11563 -38.7555 -41.4825 -12.5694 177.567 -62.5689 96.5171 -18.5644 -16.9901 8.88404 -26.3198 9.86182 9.08117 39.4243 12.0335 -4.97761 45.4054 13.4037 -6.38644 -2.23351 10.2521 5.0386 52.3752 15.6203 -6.40187 44.0892 13.7159 -4.48623 15.0072 7.58678 -5.70555 37.2883 13.8495 -2.53175 38.5715 14.2636 -2.77372 23.0538 4.37528 -8.90262 30.7535 11.5466 -0.51417 30.6847 11.5225 -0.506212 7.91144 0.880162 52.6244 -0.671111 1.52912 0.48903 -7.19731 14.537 5.60461 33.3306 -69.3075 -6.45842 72.3729 74.7054 -68.4893 3.85932 -6.0719 -10.0531 2.11711 13.7788 -1.05069 2.11251 -39.3413 10.8862 179.957 67.9617 -178.083 1.39447 -11.1125 -9.7466 0.330857 -2.47249 0.00711767 
-31.8555 47.5582 -7.42085 0 0 -0 -5.60346 -28.0415 27.5341 -0.469664 4.91861 -4.47898 -0.553754 9.85885 -8.96732 -0.553756 9.85889 -8.96736 0.420723 8.45866 11.2641 12.1991 1.04512 16.5232 8.61762 -1.83893 -32.02 39.4286 -11.0189 20.9031 -116.835 -42.9213 -69.7908 -32.4268 2.42665 39.1203 -3.03456 13.5333 -2.18211 -35.3168 20.4567 4.66822 -36.3891 20.9688 4.99587 -1.00371 1.77402 1.17348 -42.7842 24.7472 5.54532 -8.91324 5.62872 -0.44239 -6.58203 6.72805 5.0649 -13.883 9.6821 -0.672669 -15.2683 10.6413 -0.610349 13.8074 -0.976092 8.79334 -17.7367 12.2751 -1.06118 -8.75059 6.03028 -1.00082 -11.5753 -16.7454 -49.4479 -4.53233 0.274105 0.313038 8.53294 10.6973 -3.07919 -0.202698 0.360195 1.14097 -38.7249 -41.5049 -12.5627 177.545 -62.6439 96.6157 -18.6018 -16.9921 8.83072 -26.3198 9.86182 9.08117 39.4242 12.0335 -4.9776 45.4054 13.4036 -6.38643 -2.23351 10.2521 5.03859 52.3752 15.6203 -6.40186 44.0892 13.716 -4.4862 15.0073 7.58678 -5.70555 37.2883 13.8495 -2.53175 38.5715 14.2636 -2.77371 23.0538 4.37528 -8.9026 30.7535 11.5466 -0.514178 30.6847 11.5225 -0.506204 7.91143 0.880151 52.6244 -0.671089 1.52912 0.489034 -7.19734 14.537 5.6046 33.2861 -69.2794 -6.49429 72.0674 74.6899 -68.1836 3.90697 -5.97624 -10.0521 2.12478 13.8246 -1.05515 2.07347 -39.4258 10.8249 179.964 68.1336 -178.113 1.31596 -11.0613 -9.67732 0.336818 -2.51693 0.0073735 
-31.8638 47.5582 -7.44007 0 0 -0 -5.4959 -28.0401 27.8248 -0.476976 4.92258 -4.51506 -0.564986 9.86741 -9.03933 -0.564988 9.86744 -9.03935 0.412863 8.6035 11.2363 12.2526 1.01991 16.497 8.59896 -1.83784 -32.0073 39.4539 -11.0093 20.9226 -116.793 -43.0095 -69.7863 -32.6255 2.41597 39.1829 -3.03456 13.5333 -2.18214 -35.3168 20.4567 4.66821 -36.3891 20.9688 4.99588 -1.00371 1.77402 1.17349 -42.7842 24.7473 5.54532 -8.91323 5.6287 -0.442375 -6.58205 6.72803 5.06493 -13.883 9.68208 -0.672655 -15.2683 10.6413 -0.610355 13.8074 -0.976106 8.79332 -17.7367 12.2751 -1.06116 -8.75058 6.03027 -1.0008 -11.5753 -16.7453 -49.4479 -4.53233 0.274125 0.313028 8.53294 10.6972 -3.07917 -0.21164 0.359497 1.15884 -38.7405 -41.5499 -12.5892 177.427 -62.7333 96.7282 -18.6933 -17.0008 8.63511 -26.3198 9.8618 9.08117 39.4243 12.0335 -4.9776 45.4054 13.4036 -6.38642 -2.23351 10.2521 5.03859 52.3752 15.6203 -6.40186 44.0892 13.7159 -4.48621 15.0073 7.58676 -5.70554 37.2883 13.8495 -2.53175 38.5715 14.2636 -2.77371 23.0538 4.37526 -8.90259 30.7535 11.5466 -0.514182 30.6847 11.5225 -0.506189 7.91146 0.880136 52.6244 -0.671108 1.52912 0.489032 -7.19735 14.537 5.60461 33.0348 -69.262 -6.77228 71.651 74.6558 -67.7363 3.847 -5.91585 -10.0398 2.13971 13.9139 -1.06384 2.01986 -39.4994 10.7466 179.962 68.1907 -178.104 1.20788 -10.9168 -9.67198 0.354433 -2.64841 0.00816692 
-31.8581 47.5492 -7.4537 0 0 -0 -5.40419 -28.0486 28.0142 -0.480812 4.92643 -4.53516 -0.570615 9.87544 -9.07943 -0.57061 9.87548 -9.07948 0.419856 8.70345 11.1962 12.2027 1.04415 16.4315 8.5831 -1.83759 -32.0046 39.4586 -10.9955 20.9116 -116.795 -43.1298 -69.7949 -32.8023 2.43057 39.2154 -3.03456 13.5333 -2.18214 -35.3168 20.4567 4.6682 -36.3891 20.9688 4.99587 -1.00371 1.77401 1.17352 -42.7842 24.7473 5.54535 -8.91324 5.6287 -0.442361 -6.58205 6.72804 5.06492 -13.883 9.6821 -0.672651 -15.2683 10.6413 -0.610348 13.8074 -0.976121 8.79333 -17.7367 12.2752 -1.06117 -8.75059 6.03026 -1.00081 -11.5753 -16.7454 -49.448 -4.53232 0.274131 0.313036 8.53293 10.6972 -3.07915 -0.236358 0.359164 1.16957 -38.8329 -41.6164 -12.6733 177.231 -62.8441 96.9054 -18.8463 -16.9848 8.23583 -26.3198 9.86181 9.08119 39.4243 12.0335 -4.9776 45.4054 13.4036 -6.38642 -2.2335 10.2521 5.0386 52.3752 15.6203 -6.40186 44.0892 13.7159 -4.48619 15.0073 7.58678 -5.70555 37.2883 13.8495 -2.53174 38.5716 14.2636 -2.77369 23.0538 4.3753 -8.90255 30.7535 11.5466 -0.514155 30.6847 11.5225 -0.506188 7.91145 0.880148 52.6244 -0.671089 1.52912 0.489035 -7.19736 14.537 5.60462 32.9962 -69.2575 -6.80344 71.2353 74.6285 -67.3087 3.85037 -5.82586 -10.1223 2.10924 13.7315 -1.04608 2.02702 -39.5313 10.7716 179.955 68.1682 -178.09 1.01937 -10.7738 -9.70292 0.356779 -2.66564 0.00827137 
-31.8582 47.5415 -7.46572 0 0 -0 -5.32686 -28.0615 28.1673 -0.481273 4.92838 -4.55376 -0.569747 9.8794 -9.11684 -0.569754 9.87942 -9.11687 0.41637 8.80904 11.103 12.3169 1.08445 16.3702 8.57716 -1.83806 -32.01 39.4685 -10.9515 20.8928 -116.819 -43.2522 -69.8074 -32.9574 2.42264 39.2245 -3.03457 13.5333 -2.18212 -35.3168 20.4567 4.6682 -36.3891 20.9688 4.99587 -1.00373 1.77401 1.17357 -42.7842 24.7472 5.54537 -8.91324 5.6287 -0.442378 -6.58208 6.72801 5.065 -13.883 9.6821 -0.672626 -15.2683 10.6413 -0.610358 13.8074 -0.976107 8.79335 -17.7367 12.2751 -1.06115 -8.75061 6.03028 -1.00081 -11.5753 -16.7453 -49.4481 -4.53231 0.274136 0.313032 8.53293 10.6972 -3.07914 -0.268199 0.358653 1.18023 -38.9551 -41.7027 -12.7698 176.943 -62.9782 97.0715 -19.0304 -16.9736 7.72326 -26.3198 9.86181 9.0812 39.4242 12.0335 -4.97757 45.4054 13.4037 -6.38643 -2.2335 10.2521 5.0386 52.3752 15.6203 -6.40186 44.0892 13.7159 -4.48615 15.0073 7.58678 -5.70555 37.2883 13.8495 -2.53173 38.5715 14.2636 -2.77366 23.0538 4.37532 -8.90252 30.7535 11.5466 -0.514138 30.6847 11.5225 -0.506189 7.91143 0.880169 52.6244 -0.671115 1.52911 0.489031 -7.19733 14.5369 5.60463 32.9954 -69.2598 -6.79222 70.8399 74.5957 -66.8845 3.8837 -5.79954 -10.1539 2.10228 13.6898 -1.04203 2.08131 -39.5478 10.8209 179.948 68.099 -178.081 0.912249 -10.672 -9.7644 0.379604 -2.83593 0.00937812 
-31.8606 47.5309 -7.4773 0 0 -0 -5.25357 -28.0795 28.3109 -0.482687 4.92959 -4.57963 -0.570224 9.88195 -9.16876 -0.570232 9.88199 -9.16879 0.408561 8.92894 10.9798 12.4572 1.10496 16.2956 8.58628 -1.83947 -32.027 39.5151 -10.8727 20.8881 -116.876 -43.3569 -69.8371 -33.058 2.37898 39.241 -3.0346 13.5333 -2.18213 -35.3168 20.4567 4.66822 -36.3892 20.9688 4.99588 -1.00375 1.77401 1.17365 -42.7843 24.7472 5.54546 -8.91324 5.62872 -0.442366 -6.58211 6.72801 5.0651 -13.883 9.68211 -0.672554 -15.2683 10.6413 -0.610354 13.8074 -0.976113 8.79333 -17.7367 12.2752 -1.0611 -8.75061 6.03029 -1.00081 -11.5753 -16.7454 -49.4479 -4.53232 0.274103 0.313038 8.53292 10.6973 -3.07906 -0.296953 0.357707 1.20543 -39.0893 -41.811 -12.862 176.645 -63.1382 97.2277 -19.2085 -16.9547 7.18655 -26.3198 9.86179 9.08123 39.4243 12.0336 -4.97754 45.4054 13.4037 -6.38641 -2.23349 10.2521 5.03858 52.3752 15.6203 -6.40185 44.0892 13.7159 -4.48612 15.0073 7.58679 -5.70556 37.2883 13.8495 -2.53171 38.5715 14.2636 -2.77359 23.0538 4.37536 -8.90244 30.7536 11.5466 -0.514098 30.6847 11.5225 -0.506193 7.91145 0.880143 52.6244 -0.671095 1.52912 0.489041 -7.19737 14.5369 5.60467 32.9239 -69.2549 -6.86482 70.3485 74.5483 -66.3441 3.87126 -5.79542 -10.1856 2.11006 13.7364 -1.04654 2.15471 -39.5664 10.8468 179.941 68.0368 -178.07 0.89625 -10.6002 -9.81924 0.389133 -2.90728 0.00984903 
-31.8597 47.5164 -7.49182 0 0 -0 -5.18536 -28.0997 28.443 -0.486297 4.93176 -4.61837 -0.57391 9.88662 -9.24638 -0.573911 9.88665 -9.2464 0.404405 9.03087 10.8505 12.6121 1.09976 16.1769 8.61079 -1.84274 -32.0641 39.5993 -10.7408 20.8915 -116.994 -43.4496 -69.896 -33.0721 2.31854 39.2465 -3.03461 13.5333 -2.18213 -35.3168 20.4567 4.66821 -36.3892 20.9688 4.99589 -1.00375 1.77403 1.17349 -42.7842 24.7473 5.54529 -8.91325 5.62872 -0.442375 -6.58208 6.72804 5.06489 -13.883 9.68213 -0.672486 -15.2683 10.6413 -0.610348 13.8074 -0.976118 8.79333 -17.7367 12.2752 -1.06103 -8.75062 6.03027 -1.00079 -11.5753 -16.7454 -49.4479 -4.53232 0.274107 0.313065 8.53296 10.6973 -3.07919 -0.328519 0.356066 1.25579 -39.2019 -41.9376 -12.9374 176.366 -63.3239 97.4078 -19.3497 -16.9079 6.62528 -26.3198 9.86174 9.0813 39.4242 12.0336 -4.97747 45.4054 13.4036 -6.3864 -2.23347 10.2521 5.03858 52.3752 15.6203 -6.40182 44.0892 13.716 -4.48599 15.0073 7.58678 -5.70554 37.2883 13.8495 -2.53173 38.5716 14.2636 -2.77371 23.0538 4.37527 -8.90263 30.7535 11.5466 -0.513975 30.6848 11.5225 -0.506186 7.91146 0.880144 52.6244 -0.671101 1.52911 0.489056 -7.19741 14.5369 5.60474 32.7875 -69.2497 -7.02066 69.8996 74.5015 -65.8449 3.85378 -5.80538 -10.179 2.10924 13.7317 -1.04611 2.21972 -39.5905 10.8376 179.942 68.026 -178.074 0.924177 -10.556 -9.85611 0.389607 -2.91039 0.00986316 
-31.8705 47.5131 -7.49502 0 0 -0 -5.09975 -28.1701 28.708 -0.484034 4.94956 -4.69562 -0.561118 9.9221 -9.40217 -0.561122 9.92213 -9.4022 0.404796 9.11113 10.7872 12.8198 1.03709 15.8606 8.66064 -1.84797 -32.1241 39.7199 -10.5524 20.9126 -117.145 -43.5829 -69.9781 -33.0653 2.22714 39.2346 -3.03457 13.5333 -2.1821 -35.3168 20.4567 4.66822 -36.3892 20.9688 4.99589 -1.0037 1.77405 1.1735 -42.7842 24.7472 5.54529 -8.91326 5.62872 -0.442379 -6.58203 6.72806 5.06488 -13.883 9.68208 -0.672667 -15.2683 10.6413 -0.610339 13.8074 -0.9761 8.79333 -17.7367 12.2752 -1.06117 -8.75063 6.03028 -1.00081 -11.5753 -16.7454 -49.4479 -4.53232 0.274217 0.3131 8.53295 10.6973 -3.07919 -0.373037 0.353731 1.33221 -39.2754 -42.1355 -12.9724 176.052 -63.5997 97.6424 -19.4488 -16.8539 5.98612 -26.3198 9.8618 9.08117 39.4243 12.0336 -4.97761 45.4054 13.4037 -6.38633 -2.23349 10.2521 5.03859 52.3752 15.6204 -6.40181 44.0892 13.7159 -4.48622 15.0073 7.5868 -5.70553 37.2883 13.8495 -2.53166 38.5715 14.2636 -2.77372 23.0538 4.37527 -8.9026 30.7535 11.5466 -0.51417 30.6847 11.5225 -0.506175 7.91144 0.880186 52.6246 -0.67112 1.52911 0.489072 -7.19734 14.537 5.60461 32.318 -69.257 -7.55547 69.6465 74.4696 -65.5419 3.91289 -5.8476 -10.1013 2.12744 13.8407 -1.05674 2.15685 -39.6237 10.5835 179.956 68.0601 -178.117 0.970794 -10.5746 -9.8687 0.373585 -2.79116 0.0090737 
